# xmcd CD database file
#
# Track frame offsets:
#	150
#	21217
#	35648
#	57027
#	72999
#	97035
#	118191
#	148386
#	169454
#	186697
#	202670
#	222694
#
# Disc length: 3130 seconds
#
# Revision: 0
# Processed by: cddbd v1.5.2PL0 Copyright (c) Steve Scherf et al.
# Submitted via: CDex 1.51
#
DISCID=c60c380c
DTITLE=SIXTY FOUR BLUES - Sixty Four Blues
DYEAR=2019
DGENRE=Blues
TTITLE0=Howlin' for my darling
TTITLE1=Too late
TTITLE2=Chitlins con carne
TTITLE3=Caledonia
TTITLE4=Country boy
TTITLE5=Tengo el mocho loco
TTITLE6=Mellow down easy
TTITLE7=I Appreciate
TTITLE8=Route 66
TTITLE9=Quick draw
TTITLE10=Boggie thing
TTITLE11=Misty
EXTD=YEAR: 2019
EXTT0=
EXTT1=
EXTT2=
EXTT3=
EXTT4=
EXTT5=
EXTT6=
EXTT7=
EXTT8=
EXTT9=
EXTT10=
EXTT11=
PLAYORDER=
